<svg width="31" height="30" viewBox="0 0 31 30" fill="none" xmlns="http://www.w3.org/2000/svg">
<circle cx="15.9231" cy="15" r="15" fill="#F1EDE8"/>
<circle cx="14.8981" cy="19.375" r="1.125" fill="black"/>
<circle cx="19.3981" cy="19.375" r="1.125" fill="black"/>
<path d="M7.52307 9L10.4324 10.333C10.8872 10.5414 11.2474 10.9127 11.4419 11.3736L13.0894 15.2776C13.402 16.0184 14.128 16.5 14.9321 16.5H19.5034C20.3115 16.5 21.0402 16.0137 21.3503 15.2674L22.5231 12.4448" stroke="black"/>
<path d="M16.6695 14.3536C16.8648 14.5488 17.1814 14.5488 17.3766 14.3536L20.5586 11.1716C20.7539 10.9763 20.7539 10.6597 20.5586 10.4645C20.3633 10.2692 20.0468 10.2692 19.8515 10.4645L17.0231 13.2929L14.1946 10.4645C13.9994 10.2692 13.6828 10.2692 13.4875 10.4645C13.2923 10.6597 13.2923 10.9763 13.4875 11.1716L16.6695 14.3536ZM16.5231 9V14H17.5231V9H16.5231Z" fill="black"/>
</svg>
