<svg width="103" height="62" viewBox="0 0 103 62" fill="none" xmlns="http://www.w3.org/2000/svg">
<path d="M0 3H66.0851C67.1897 3 68.0851 3.89543 68.0851 5V48.8724C68.0851 49.9769 67.1897 50.8724 66.0851 50.8724H15.8298C14.7252 50.8724 13.8298 49.9769 13.8298 48.8724V34.9149" stroke="#998947" stroke-width="5"/>
<path d="M71.2766 12.5742H91.6116C92.4239 12.5742 93.1555 13.0655 93.4629 13.8174L99.8513 29.4445C99.9495 29.6847 100 29.9418 100 30.2013V48.8721C100 49.9767 99.1046 50.8721 98 50.8721H71.2766" stroke="#998947" stroke-width="5"/>
<line x1="13.8297" y1="16.3938" x2="45.7446" y2="16.3938" stroke="#998947" stroke-width="3"/>
<line x1="13.8297" y1="27.032" x2="40.4255" y2="27.032" stroke="#998947" stroke-width="3"/>
<circle cx="85.1064" cy="50.8724" r="9.1383" fill="#C7BE98" stroke="#998947" stroke-width="3"/>
<circle cx="42.5532" cy="50.8724" r="9.1383" fill="#C7BE98" stroke="#998947" stroke-width="3"/>
</svg>
