<svg width="20" height="20" viewBox="0 0 20 20" fill="none" xmlns="http://www.w3.org/2000/svg">
<circle cx="10" cy="10" r="10" fill="white"/>
<path d="M18 10C18 5.58172 14.4183 2 10 2C5.58172 2 2 5.58172 2 10C2 13.993 4.92547 17.3027 8.75 17.9028V12.3125H6.71875V10H8.75V8.2375C8.75 6.2325 9.94438 5.125 11.7717 5.125C12.6467 5.125 13.5625 5.28125 13.5625 5.28125V7.25H12.5538C11.56 7.25 11.25 7.86672 11.25 8.5V10H13.4688L13.1141 12.3125H11.25V17.9028C15.0745 17.3027 18 13.993 18 10Z" fill="#1877F2"/>
<path d="M13.1141 12.3125L13.4688 10H11.25V8.5C11.25 7.86734 11.56 7.25 12.5538 7.25H13.5625V5.28125C13.5625 5.28125 12.647 5.125 11.7717 5.125C9.94438 5.125 8.75 6.2325 8.75 8.2375V10H6.71875V12.3125H8.75V17.9028C9.5783 18.0324 10.4217 18.0324 11.25 17.9028V12.3125H13.1141Z" fill="white"/>
</svg>
