<svg width="20" height="20" viewBox="0 0 20 20" fill="none" xmlns="http://www.w3.org/2000/svg">
<circle cx="10" cy="10" r="10" fill="white"/>
<g clip-path="url(#clip0_831_429)">
<path d="M15.6824 3.33331H4.31763C4.05659 3.33331 3.80624 3.43701 3.62166 3.6216C3.43707 3.80618 3.33337 4.05653 3.33337 4.31757V15.6824C3.33337 15.9434 3.43707 16.1938 3.62166 16.3784C3.80624 16.5629 4.05659 16.6666 4.31763 16.6666H15.6824C15.9435 16.6666 16.1938 16.5629 16.3784 16.3784C16.563 16.1938 16.6667 15.9434 16.6667 15.6824V4.31757C16.6667 4.05653 16.563 3.80618 16.3784 3.6216C16.1938 3.43701 15.9435 3.33331 15.6824 3.33331ZM7.30745 14.6916H5.30282V8.32405H7.30745V14.6916ZM6.30374 7.44165C6.07635 7.44037 5.85444 7.37175 5.666 7.24447C5.47757 7.11719 5.33106 6.93694 5.24497 6.72647C5.15888 6.51601 5.13707 6.28475 5.18228 6.0619C5.22749 5.83904 5.33771 5.63458 5.49902 5.4743C5.66032 5.31403 5.86549 5.20513 6.08863 5.16135C6.31177 5.11757 6.54288 5.14086 6.75279 5.2283C6.9627 5.31574 7.14201 5.46341 7.26808 5.65265C7.39415 5.8419 7.46133 6.06425 7.46115 6.29165C7.4633 6.44389 7.43477 6.595 7.37727 6.73598C7.31977 6.87696 7.23447 7.00492 7.12647 7.11224C7.01846 7.21955 6.88996 7.30403 6.74861 7.36062C6.60726 7.41721 6.45597 7.44477 6.30374 7.44165ZM14.6963 14.6972H12.6926V11.2185C12.6926 10.1926 12.2565 9.87591 11.6936 9.87591C11.0991 9.87591 10.5158 10.3241 10.5158 11.2444V14.6972H8.51115V8.32868H10.4389V9.21109H10.4649C10.6584 8.81942 11.3362 8.14998 12.3704 8.14998C13.4889 8.14998 14.6973 8.81387 14.6973 10.7583L14.6963 14.6972Z" fill="#0A66C2"/>
</g>
<defs>
<clipPath id="clip0_831_429">
<rect width="13.3333" height="13.3333" fill="white" transform="translate(3.33337 3.33331)"/>
</clipPath>
</defs>
</svg>
