<svg width="15" height="20" viewBox="0 0 15 20" fill="none" xmlns="http://www.w3.org/2000/svg">
<path d="M7.49996 20C6.14668 18.8032 4.89232 17.4911 3.74998 16.0775C2.03571 13.9546 9.46776e-07 10.793 9.46776e-07 7.7803C-0.0015185 4.63378 1.82597 1.79641 4.62969 0.592222C7.43342 -0.611966 10.6607 0.0543808 12.8056 2.28032C14.2161 3.73625 15.0063 5.71671 15 7.7803C15 10.793 12.9642 13.9546 11.2499 16.0775C10.1076 17.4911 8.85324 18.8032 7.49996 20ZM7.49996 4.44765C6.35162 4.44765 5.2905 5.08285 4.71632 6.11398C4.14215 7.1451 4.14215 8.4155 4.71632 9.44662C5.2905 10.4777 6.35162 11.1129 7.49996 11.1129C9.27516 11.1129 10.7142 9.62087 10.7142 7.7803C10.7142 5.93973 9.27516 4.44765 7.49996 4.44765Z" fill="#333333"/>
</svg>
