<svg width="31" height="31" viewBox="0 0 31 31" fill="none" xmlns="http://www.w3.org/2000/svg">
<circle cx="15.3846" cy="15.3846" r="15.3846" fill="#F1EDE8"/>
<circle cx="15.5384" cy="12.3077" r="3.34615" stroke="black"/>
<mask id="path-3-inside-1_831_539" fill="white">
<path fill-rule="evenodd" clip-rule="evenodd" d="M19.9256 18.0172C22.3797 19.8753 20.0909 22.9231 17.0127 22.9231H13.5606C10.4824 22.9231 8.19356 19.8753 10.6477 18.0172C11.9373 17.0408 13.5443 16.4615 15.2866 16.4615C17.029 16.4615 18.636 17.0408 19.9256 18.0172Z"/>
</mask>
<path d="M13.5606 23.9231H17.0127V21.9231H13.5606V23.9231ZM11.2513 18.8145C12.3732 17.965 13.7697 17.4615 15.2866 17.4615V15.4615C13.319 15.4615 11.5014 16.1165 10.044 17.22L11.2513 18.8145ZM15.2866 17.4615C16.8036 17.4615 18.2001 17.965 19.322 18.8145L20.5293 17.22C19.0719 16.1165 17.2543 15.4615 15.2866 15.4615V17.4615ZM17.0127 23.9231C18.8602 23.9231 20.5304 23.0144 21.3807 21.7143C21.8126 21.0538 22.0534 20.2542 21.9275 19.4186C21.7998 18.5714 21.3142 17.8143 20.5293 17.22L19.322 18.8145C19.7641 19.1492 19.9127 19.4698 19.9498 19.7166C19.9888 19.9751 19.9252 20.2858 19.7069 20.6196C19.2567 21.3079 18.2434 21.9231 17.0127 21.9231V23.9231ZM13.5606 21.9231C12.3299 21.9231 11.3166 21.3079 10.8664 20.6196C10.6481 20.2858 10.5845 19.9751 10.6234 19.7166C10.6606 19.4698 10.8092 19.1492 11.2513 18.8145L10.044 17.22C9.25908 17.8143 8.77345 18.5714 8.64578 19.4186C8.51986 20.2542 8.76069 21.0538 9.19261 21.7143C10.0429 23.0144 11.7131 23.9231 13.5606 23.9231V21.9231Z" fill="black" mask="url(#path-3-inside-1_831_539)"/>
</svg>
