<svg width="20" height="20" viewBox="0 0 20 20" fill="none" xmlns="http://www.w3.org/2000/svg">
<circle cx="10" cy="10" r="10" fill="white"/>
<g clip-path="url(#clip0_831_435)">
<path d="M10 18C14.4183 18 18 14.4183 18 10C18 5.58172 14.4183 2 10 2C5.58172 2 2 5.58172 2 10C2 14.4183 5.58172 18 10 18Z" fill="white"/>
<path d="M10 2C5.58189 2 2 5.58189 2 10C2 13.3909 4.107 16.2881 7.08313 17.4535C7.0107 16.8214 6.95144 15.8469 7.10946 15.1556C7.25432 14.53 8.04444 11.1786 8.04444 11.1786C8.04444 11.1786 7.80741 10.6979 7.80741 9.99342C7.80741 8.88066 8.45267 8.05103 9.25597 8.05103C9.94074 8.05103 10.27 8.56461 10.27 9.17696C10.27 9.86173 9.83539 10.8889 9.60494 11.8436C9.41399 12.6403 10.0066 13.2922 10.7901 13.2922C12.2123 13.2922 13.3053 11.7909 13.3053 9.63128C13.3053 7.71523 11.9292 6.3786 9.96049 6.3786C7.6823 6.3786 6.34568 8.08395 6.34568 9.84856C6.34568 10.5333 6.60905 11.2708 6.93827 11.6724C7.00411 11.7514 7.0107 11.8239 6.99095 11.9029C6.93169 12.1531 6.79342 12.6996 6.76708 12.8115C6.73416 12.9564 6.64856 12.9893 6.49712 12.9169C5.4963 12.4494 4.87078 10.9942 4.87078 9.81564C4.87078 7.29383 6.70123 4.97613 10.158 4.97613C12.93 4.97613 15.0897 6.95144 15.0897 9.59835C15.0897 12.3572 13.3514 14.5761 10.9416 14.5761C10.1317 14.5761 9.3679 14.1547 9.11111 13.6543C9.11111 13.6543 8.70947 15.1819 8.6107 15.5572C8.43292 16.2551 7.94568 17.1243 7.61646 17.6576C8.36708 17.8881 9.1572 18.0132 9.98683 18.0132C14.4049 18.0132 17.9868 14.4313 17.9868 10.0132C18 5.58189 14.4181 2 10 2Z" fill="#E60019"/>
</g>
<defs>
<clipPath id="clip0_831_435">
<rect width="16" height="16" fill="white" transform="translate(2 2)"/>
</clipPath>
</defs>
</svg>
