<svg width="100" height="65" viewBox="0 0 100 65" fill="none" xmlns="http://www.w3.org/2000/svg">
<line x1="9.62963" y1="17.9814" x2="62.2222" y2="17.9814" stroke="#FBB6A9" stroke-width="15"/>
<line x1="10.3704" y1="34.5369" x2="40.7407" y2="34.5369" stroke="#FBB6A9" stroke-width="5"/>
<rect x="65.463" y="29.9075" width="32.037" height="32.037" rx="7.5" stroke="#FF664B" stroke-width="5"/>
<path fill-rule="evenodd" clip-rule="evenodd" d="M87.5926 27.7036V25.9261C87.5926 22.551 84.8566 19.8149 81.4815 19.8149C78.1064 19.8149 75.3704 22.551 75.3704 25.9261V27.7036H70.3704V25.9261C70.3704 19.7896 75.345 14.8149 81.4815 14.8149C87.618 14.8149 92.5926 19.7896 92.5926 25.9261V27.7036H87.5926Z" fill="#FF664B"/>
<path fill-rule="evenodd" clip-rule="evenodd" d="M5 5L77.2222 5V16.0008C78.7251 15.2422 80.4238 14.8149 82.2222 14.8149V5C82.2222 2.23858 79.9836 0 77.2222 0H5C2.23858 0 0 2.23857 0 5V43.1481C0 45.9096 2.23858 48.1481 5 48.1481H63.7037V43.1482L5 43.1481V5ZM77.2222 27.4074H82.2222V19.8149C80.1554 19.8149 78.3282 20.8409 77.2222 22.4115L77.2222 27.4074Z" fill="#FF664B"/>
</svg>
