<svg width="80" height="88" viewBox="0 0 80 88" fill="none" xmlns="http://www.w3.org/2000/svg">
<path d="M36.2195 50.4356L28.8205 45.4095C27.5515 44.5474 25.8365 44.7817 24.8452 45.9526L6.13669 68.0489C4.4509 70.04 5.9344 73.0854 8.54136 72.9853L18.8738 72.5885C20.1213 72.5406 21.2681 73.2703 21.7532 74.4206L23.9449 79.6179C25.0342 82.201 28.7562 82.0115 29.5775 79.3312L37.4021 53.7961C37.7877 52.5378 37.3082 51.1751 36.2195 50.4356Z" fill="#FBC353" stroke="#FBC353" stroke-width="4" stroke-linecap="round"/>
<path d="M42.7685 49.2916L51.5681 44.1811C52.8401 43.4424 54.46 43.7348 55.3934 44.8716L74.1749 67.7472C75.836 69.7704 74.2903 72.8018 71.6773 72.6456L59.7235 71.9308C58.5518 71.8608 57.4469 72.4805 56.8957 73.5168L53.6503 79.619C52.3635 82.0385 48.7734 81.6081 48.095 78.953L41.3686 52.6285C41.0363 51.3282 41.608 49.9655 42.7685 49.2916Z" fill="#FBC353" stroke="#FBC353" stroke-width="4" stroke-linecap="round"/>
<path fill-rule="evenodd" clip-rule="evenodd" d="M41.5423 1.26986C40.3998 -0.423286 37.9072 -0.423286 36.7646 1.26986C35.8303 2.6544 33.9184 2.95722 32.602 1.92915C30.9922 0.671937 28.6216 1.44219 28.0582 3.40553C27.5975 5.01102 25.8727 5.88983 24.303 5.31887C22.3835 4.62065 20.367 6.08576 20.4378 8.12711C20.4958 9.79639 19.127 11.1652 17.4577 11.1072C15.4164 11.0363 13.9513 13.0529 14.6495 14.9724C15.2205 16.5421 14.3416 18.2668 12.7362 18.7276C10.7728 19.291 10.0026 21.6616 11.2598 23.2714C12.2878 24.5878 11.985 26.4997 10.6005 27.434C8.90734 28.5765 8.90734 31.0691 10.6005 32.2117C11.985 33.1459 12.2878 35.0579 11.2598 36.3743C10.0026 37.9841 10.7728 40.3547 12.7362 40.9181C14.3416 41.3788 15.2205 43.1036 14.6495 44.6732C13.9513 46.5928 15.4164 48.6093 17.4577 48.5384C19.127 48.4805 20.4958 49.8493 20.4378 51.5185C20.367 53.5599 22.3835 55.025 24.303 54.3268C25.8727 53.7558 27.5975 54.6346 28.0582 56.2401C28.6216 58.2035 30.9922 58.9737 32.602 57.7165C33.9184 56.6884 35.8303 56.9912 36.7646 58.3758C37.9072 60.0689 40.3998 60.0689 41.5423 58.3758C42.4766 56.9912 44.3885 56.6884 45.7049 57.7165C47.3147 58.9737 49.6853 58.2035 50.2487 56.2401C50.7094 54.6346 52.4342 53.7558 54.0039 54.3268C55.9234 55.025 57.9399 53.5599 57.8691 51.5185C57.8111 49.8493 59.1799 48.4805 60.8492 48.5384C62.8905 48.6093 64.3556 46.5928 63.6574 44.6732C63.0865 43.1036 63.9653 41.3788 65.5708 40.9181C67.5341 40.3547 68.3043 37.9841 67.0471 36.3743C66.0191 35.0579 66.3219 33.1459 67.7064 32.2117C69.3996 31.0691 69.3996 28.5765 67.7064 27.434C66.3219 26.4997 66.0191 24.5878 67.0471 23.2714C68.3043 21.6616 67.5341 19.291 65.5708 18.7276C63.9653 18.2668 63.0865 16.5421 63.6574 14.9724C64.3556 13.0529 62.8905 11.0363 60.8492 11.1072C59.1799 11.1652 57.8111 9.79639 57.8691 8.12711C57.9399 6.08576 55.9234 4.62065 54.0039 5.31887C52.4342 5.88983 50.7094 5.01102 50.2487 3.40553C49.6853 1.44219 47.3147 0.671938 45.7049 1.92915C44.3885 2.95722 42.4766 2.6544 41.5423 1.26986ZM59.3223 22.3717C60.8788 20.804 60.8697 18.2714 59.302 16.7149C57.7343 15.1584 55.2017 15.1675 53.6452 16.7351L34.7792 35.7367L27.2292 28.1325C25.6727 26.5648 23.1401 26.5557 21.5724 28.1122C20.0047 29.6687 19.9957 32.2014 21.5522 33.7691L31.9407 44.2322L34.7792 47.0911L37.6177 44.2322L59.3223 22.3717Z" fill="#FFD37B"/>
</svg>
