<svg width="20" height="20" viewBox="0 0 20 20" fill="none" xmlns="http://www.w3.org/2000/svg">
<circle cx="10" cy="10" r="10" fill="white"/>
<path d="M7.03168 16.5005C13.0694 16.5005 16.3718 11.4982 16.3718 7.16031C16.3718 7.01823 16.3718 6.87679 16.3622 6.73599C17.0047 6.27129 17.5593 5.69591 18 5.03679C17.4009 5.30239 16.7654 5.47649 16.1146 5.55327C16.7999 5.14306 17.3128 4.49779 17.5578 3.73759C16.9134 4.11999 16.2084 4.38947 15.4733 4.53439C14.9783 4.0081 14.3237 3.65961 13.6108 3.54284C12.8978 3.42607 12.1663 3.54753 11.5293 3.88842C10.8923 4.22931 10.3855 4.77064 10.0872 5.42862C9.78884 6.0866 9.71569 6.82456 9.87904 7.52831C8.57393 7.46284 7.29717 7.12366 6.13164 6.53279C4.9661 5.94192 3.93784 5.11256 3.1136 4.09855C2.69382 4.82121 2.56525 5.6767 2.75407 6.49083C2.94288 7.30496 3.43489 8.01652 4.12992 8.48063C3.60749 8.46532 3.09643 8.32438 2.64 8.06975V8.11135C2.64021 8.86925 2.90257 9.60374 3.38258 10.1903C3.86259 10.7768 4.53071 11.1792 5.2736 11.3293C4.79032 11.4611 4.28325 11.4804 3.79136 11.3856C4.00121 12.0378 4.40962 12.6081 4.95949 13.0169C5.50937 13.4256 6.17322 13.6523 6.85824 13.6653C6.17763 14.2003 5.39821 14.5958 4.56458 14.8293C3.73096 15.0627 2.85948 15.1296 2 15.0259C3.50122 15.9893 5.24795 16.5003 7.03168 16.4979" fill="#1DA1F2"/>
</svg>
