<svg width="20" height="20" viewBox="0 0 20 20" fill="none" xmlns="http://www.w3.org/2000/svg">
<circle cx="10" cy="10" r="10" fill="white"/>
<g clip-path="url(#clip0_831_432)">
<path d="M17.6813 6.12365C17.5909 5.78326 17.4126 5.47259 17.1643 5.22275C16.9161 4.97291 16.6066 4.79265 16.2668 4.70001C15.0159 4.36365 10.0159 4.36365 10.0159 4.36365C10.0159 4.36365 5.01587 4.36365 3.76496 4.70001C3.42516 4.79265 3.11564 4.97291 2.86739 5.22275C2.61915 5.47259 2.44087 5.78326 2.35041 6.12365C2.01587 7.38001 2.01587 10 2.01587 10C2.01587 10 2.01587 12.62 2.35041 13.8764C2.44087 14.2168 2.61915 14.5274 2.86739 14.7773C3.11564 15.0271 3.42516 15.2074 3.76496 15.3C5.01587 15.6364 10.0159 15.6364 10.0159 15.6364C10.0159 15.6364 15.0159 15.6364 16.2668 15.3C16.6066 15.2074 16.9161 15.0271 17.1643 14.7773C17.4126 14.5274 17.5909 14.2168 17.6813 13.8764C18.0159 12.62 18.0159 10 18.0159 10C18.0159 10 18.0159 7.38001 17.6813 6.12365Z" fill="#FF0302"/>
<path d="M8.37952 12.3791V7.62094L12.5613 10L8.37952 12.3791Z" fill="#FEFEFE"/>
</g>
<defs>
<clipPath id="clip0_831_432">
<rect width="16" height="16" fill="white" transform="translate(2 2)"/>
</clipPath>
</defs>
</svg>
